<svg aria-hidden="true" style="position: absolute; width: 0; height: 0; overflow: hidden;" version="1.1" xmlns="http://www.w3.org/2000/svg" xmlns:xlink="http://www.w3.org/1999/xlink">
<defs>
<symbol id="icon-logo-3" viewBox="0 0 47 32">
<title>logo-3</title>
<path fill="#fff" style="fill: var(--color1, #fff)" d="M17.764 1.364c0.261 0.253 0.261 0.253 0 0z"></path>
<path fill="#fff" style="fill: var(--color1, #fff)" d="M30.472 6.901c0.114 0.109 0.114 0.109 0 0z"></path>
<path fill="#fff" style="fill: var(--color1, #fff)" d="M21.861 30.842c0.253 0.248 0.253 0.248 0 0z"></path>
<path fill="#333" style="fill: var(--color2, #333)" d="M18.295 0h0.623c-0.025 0.211-0.067 0.636-0.088 0.846-0.328 0.779-0.661 1.554-1.053 2.303-0.556-0.358-1.141-0.392-1.714-0.013-0.337-1.562 1.558-2.013 2.232-3.137zM17.764 1.364c0.261 0.253 0.261 0.253 0 0z"></path>
<path fill="#333" style="fill: var(--color2, #333)" d="M22.501 0h0.522c-0.341 0.909-0.463 1.874-0.577 2.834 0.417-0.307 1.255-0.922 1.676-1.234 0.008 0.168 0.021 0.509 0.025 0.678 0.194 0.905 0.838-0.724 1.234-0.884 0.244-0.017 0.733-0.051 0.977-0.067 0.632-0.754 1.524-0.695 2.316-0.198-0.434 0.118-1.301 0.349-1.731 0.467l0.282 0.476c-0.463-0.025-0.926-0.051-1.385-0.076 0.013 0.354 0.034 1.069 0.046 1.427-0.211-0.152-0.627-0.455-0.838-0.606-0.964 0.337-1.979 0.48-2.998 0.509 0.042-0.189 0.122-0.564 0.164-0.754-1.259 0.846-2.792 0.547-4.211 0.505 0.522-0.417 0.846-1.453 1.667-1.305 0.349 0.067 0.295 0.539 0.594 0.669 0.522-0.451 0.219-1.478 0.947-1.781 0.497-0.084 1.095-0.088 1.288-0.661zM20.901 2.535c0.518 0.143 1.019-0.665 0.766-1.107-0.535-0.156-1.048 0.661-0.766 1.107z"></path>
<path fill="#333" style="fill: var(--color2, #333)" d="M11.432 1.575c0.366-0.198 0.724-0.413 1.078-0.636 0.358 0.265 0.716 0.526 1.078 0.787-0.185 0.421-0.345 0.855-0.472 1.301-0.484 0.021-0.977 0.093-1.461 0 0.379-0.682-0.821-0.884-0.223-1.453z"></path>
<path fill="#333" style="fill: var(--color2, #333)" d="M32.177 1.714c0.4-0.244 0.775-0.531 1.166-0.792 0.366 0.269 0.737 0.531 1.107 0.792-0.168 0.442-0.341 0.884-0.509 1.326-0.417 0.008-0.834 0.017-1.246 0.029-0.168-0.455-0.341-0.905-0.518-1.356z"></path>
<path fill="#333" style="fill: var(--color2, #333)" d="M26.547 3.192c0.484-0.636 0.981-1.263 1.545-1.832-0.16 0.392-0.488 1.175-0.648 1.566 0.691-0.366 2.072-1.099 2.762-1.465l-2.076 1.141c0.497 0.067 1.491 0.206 1.987 0.274-1.154 0.358-2.379 0.282-3.571 0.316z"></path>
<path fill="#333" style="fill: var(--color2, #333)" d="M26.307 2.728c0.126 0.126 0.126 0.126 0 0z"></path>
<path fill="#333" style="fill: var(--color2, #333)" d="M4.674 5.326c0.771-0.013 1.537-0.021 2.303-0.034-0.303 0.269-0.615 0.535-0.922 0.796 0.025 0.328 0.080 0.989 0.109 1.322-0.122 0.013-0.371 0.034-0.493 0.042 0.004-0.522 0.008-1.048 0.008-1.571-0.248-0.139-0.754-0.417-1.006-0.556z"></path>
<path fill="#333" style="fill: var(--color2, #333)" d="M7.314 5.179c0.257 0.227 0.518 0.446 0.779 0.661 0.194-0.181 0.581-0.543 0.775-0.728-0.118 0.872-0.152 1.756-0.067 2.632-0.164-0.4-0.383-0.762-0.653-1.086-0.337 0.282-0.644 0.598-0.922 0.947 0.055-0.808 0.080-1.617 0.088-2.425z"></path>
<path fill="#333" style="fill: var(--color2, #333)" d="M12.905 7.503c-0.665-0.749-0.615-2.333 0.665-2.261 1.2-0.152 1.086 1.246 1.011 2.046-0.556 0.076-1.116 0.147-1.676 0.215zM13.133 5.979c-0.602 0.585 0.425 1.486 0.956 0.872 0.564-0.585-0.425-1.524-0.956-0.872z"></path>
<path fill="#333" style="fill: var(--color2, #333)" d="M15.318 5.137c0.522 0.189 1.044 0.387 1.558 0.598 0.219-0.244 0.429-0.484 0.644-0.724 0.324 0.371 0.636 0.745 0.947 1.124 0.32-0.981 1.246-0.909 2.038-0.728-0.682 0.274-1.364 0.564-1.861 1.124 0.312 0.185 0.943 0.556 1.255 0.737 0.025-0.358 0.067-1.082 0.088-1.44 0.337 0.472 0.324 1.061 0.543 1.579-0.72-0.013-1.44-0.051-2.152-0.143l0.467-0.455c-0.274-0.080-0.817-0.244-1.086-0.324l0.223 0.973c-0.135-0.004-0.408-0.013-0.547-0.017 0.029-0.278 0.080-0.834 0.109-1.107-0.257 0-0.766 0-1.023 0 0.114 0.291 0.345 0.867 0.459 1.158-0.223-0.059-0.665-0.173-0.888-0.232-0.198 0.076-0.602 0.227-0.8 0.307 0-0.813 0.008-1.621 0.025-2.429zM15.608 5.937c0.029 0.943 1.394 0.017 0.324-0.211l-0.324 0.211z"></path>
<path fill="#333" style="fill: var(--color2, #333)" d="M22.076 5.011c0.413 0.484 0.808 0.981 1.2 1.482 0.164-0.514 0.345-1.019 0.539-1.524 0.051 0.935 0.034 1.869-0.008 2.804-0.396-0.484-0.787-0.973-1.175-1.465-0.177 0.514-0.371 1.023-0.577 1.528-0.038-0.943-0.021-1.882 0.021-2.825z"></path>
<path fill="#333" style="fill: var(--color2, #333)" d="M25.398 5.154c0.518 0.745 0.863 1.596 1.326 2.375-0.817-0.451-1.688-0.855-2.408 0.025 0.164-0.408 0.328-0.817 0.488-1.225 0.185-0.4 0.383-0.792 0.594-1.175z"></path>
<path fill="#333" style="fill: var(--color2, #333)" d="M29.76 5.293c0.522 0.013 1.044 0.029 1.566 0.051 0.046 0.682 0.097 1.36 0.143 2.046-0.568 0.029-1.137 0.059-1.705 0.084-0.004-0.728-0.004-1.457-0.004-2.181zM30.472 6.901c0.114 0.109 0.114 0.109 0 0z"></path>
<path fill="#333" style="fill: var(--color2, #333)" d="M32.135 5.293c0.425 0 0.851 0 1.276-0.004 0.156 0.152 0.459 0.451 0.611 0.602-0.307 0.552-0.564 1.112-0.568 1.76-0.354-0.387-0.707-0.779-1.065-1.158-0.101 0.337-0.303 1.015-0.404 1.352 0.021-0.851 0.093-1.701 0.152-2.552zM32.408 5.975c0.156 0.931 1.389-0.16 0.299-0.248l-0.299 0.248z"></path>
<path fill="#333" style="fill: var(--color2, #333)" d="M34.084 7.638c0.4-0.817 0.589-1.798 1.267-2.438 0.417 0.779 0.749 1.596 1.091 2.408-0.463-0.265-0.926-0.526-1.394-0.783-0.244 0.202-0.724 0.611-0.964 0.813z"></path>
<path fill="#333" style="fill: var(--color2, #333)" d="M36.796 5.015c0.421 0.48 0.821 0.973 1.221 1.469 0.168-0.505 0.349-1.006 0.535-1.503 0.046 0.926 0.042 1.853 0.017 2.779-0.429-0.509-0.846-1.032-1.255-1.554-0.076 0.413-0.223 1.234-0.299 1.642-0.307-0.914-0.261-1.886-0.219-2.834z"></path>
<path fill="#333" style="fill: var(--color2, #333)" d="M39.293 5.124c0.695 0.215 1.979 0.164 1.903 1.192 0.063 1.095-1.137 1.095-1.903 1.288-0.025-0.829-0.025-1.655 0-2.48zM39.832 6.042c-0.236 0.699-0.013 0.947 0.669 0.745 0.24-0.691 0.017-0.939-0.669-0.745z"></path>
<path fill="#333" style="fill: var(--color2, #333)" d="M9.465 7.398c0.202-0.838-0.278-2.109 0.901-2.421-0.046 0.303-0.139 0.901-0.185 1.204 0.286 0.029 0.859 0.084 1.145 0.114-0.408 0.139-1.225 0.413-1.634 0.552 0.362 0.067 1.082 0.211 1.444 0.282l0.067 0.349c-0.581-0.025-1.162-0.051-1.739-0.080z"></path>
<path fill="#333" style="fill: var(--color2, #333)" d="M21.065 5.448c0.585 0.147 0.501 1.752-0.004 1.971-0.282-0.589-0.295-1.385 0.004-1.971z"></path>
<path fill="#333" style="fill: var(--color2, #333)" d="M27.267 7.373c-0.442-0.324-0.72-1.545-0.114-1.709 0.257 0.602 0.509 1.204 1.011 1.655-0.211 0.291-0.509 0.312-0.897 0.055z"></path>
<path fill="#333" style="fill: var(--color2, #333)" d="M41.933 9.693c1.436-0.295 2.855-0.661 4.261-1.065 0 0.964 0.004 1.924 0.013 2.888-0.716 0.152-1.432 0.307-2.143 0.459 0.008 1.571 0.008 3.137 0.008 4.707 0.518-0.042 1.036-0.084 1.558-0.126-0.004 1.006-0.004 2.013 0 3.019-0.522 0.008-1.040 0.017-1.562 0.025 0.004 1.667 0.004 3.339 0 5.006 0.703 0.080 1.406 0.16 2.114 0.244 0.013 0.96 0.017 1.924 0.021 2.884-1.432-0.24-2.851-0.518-4.282-0.749 0.004-5.764-0.017-11.528 0.013-17.293z"></path>
<path fill="#333" style="fill: var(--color2, #333)" d="M1.107 8.493c1.503 0.446 3.389 0.669 4.185 2.232 1.103 2.185 1.099 4.918-0.021 7.099 1.192 2 1.015 4.404 0.775 6.632-0.139 1.061-0.627 2.211-1.646 2.699-1.053 0.392-2.189 0.463-3.293 0.653 0.004-6.438 0-12.876 0-19.314zM3.297 11.507c-0.114 1.823-0.126 3.655 0.017 5.474 0.253-0.442 0.665-0.838 0.678-1.381 0.042-1.373 0.337-2.985-0.695-4.093zM3.322 18.762c-0.156 2.105-0.156 4.227 0 6.333 0.526-0.678 0.758-1.495 0.712-2.345-0.051-1.343 0.316-2.901-0.712-3.987z"></path>
<path fill="#333" style="fill: var(--color2, #333)" d="M7.507 10.118c0.754 0.093 1.507 0.198 2.257 0.307-0.008 4.602 0.017 9.2-0.013 13.798 0.762-0.042 1.524-0.088 2.286-0.131-0.008 0.707-0.013 1.419-0.021 2.126-1.512 0.122-3.011 0.337-4.509 0.539 0.004-5.545 0-11.095 0-16.64z"></path>
<path fill="#333" style="fill: var(--color2, #333)" d="M38.248 10.421c0.669-0.122 1.335-0.244 2.004-0.371 0.013 5.558-0.017 11.116 0.013 16.678-0.429-0.038-1.284-0.109-1.714-0.143-0.653-2.522-1.095-5.091-1.604-7.646-0.198 2.459-0.046 4.922-0.076 7.381-0.674-0.059-1.347-0.118-2.021-0.181-0.013-5.078-0.008-10.16-0.004-15.242 0.615-0.072 1.229-0.143 1.844-0.215 0.535 2.261 0.981 4.543 1.478 6.817 0.147-2.358 0.088-4.72 0.080-7.078z"></path>
<path fill="#333" style="fill: var(--color2, #333)" d="M12.813 10.977c0.733 0.059 1.469 0.118 2.202 0.177 0 3.869-0.013 7.739 0 11.608-0.126 0.619 0.215 1.057 0.72 1.356 0.278-4.299 0.051-8.615 0.126-12.922 0.733 0.088 1.461 0.181 2.194 0.274-0.072 4.139 0.084 8.286-0.072 12.421-0.152 1.933-2.611 2.686-4.143 1.861-0.851-0.556-1.032-1.634-1.023-2.573-0.008-4.067 0.017-8.135-0.004-12.202z"></path>
<path fill="#333" style="fill: var(--color2, #333)" d="M31.044 11.284c0.737-0.051 1.478-0.101 2.219-0.147-0.076 4.935-0.067 9.878-0.004 14.813-0.741-0.042-1.482-0.088-2.219-0.131 0.004-4.846-0.004-9.688 0.004-14.535z"></path>
<path fill="#333" style="fill: var(--color2, #333)" d="M19.688 11.549c1.503 0.046 3.011 0.084 4.518 0.097-0.004 0.703-0.004 1.402-0.008 2.105-0.733-0.017-1.469-0.034-2.202-0.051-0.004 1.225-0.004 2.446-0.004 3.672 0.514 0 1.032 0 1.549 0 0 0.745 0.004 1.495 0.008 2.24-0.522 0-1.040 0-1.558 0.004 0 1.284 0 2.568-0.004 3.853 0.737-0.008 1.474-0.013 2.211-0.021 0 0.703 0.004 1.406 0.008 2.109-1.507 0-3.015 0.025-4.522 0.042 0.013-4.682 0.013-9.368 0.004-14.051z"></path>
<path fill="#333" style="fill: var(--color2, #333)" d="M25.478 11.617c0.737-0.025 1.474-0.051 2.211-0.080-0.008 4.055 0 8.114-0.008 12.168 0.787 0.025 1.575 0.051 2.362 0.076-0.004 0.669-0.013 1.343-0.017 2.013-1.516-0.109-3.027-0.198-4.547-0.223 0.017-4.648 0.017-9.301 0-13.954z"></path>
<path fill="#333" style="fill: var(--color2, #333)" d="M17.634 30.303c0.488-0.926 1.537-1.032 2.472-0.897-0.375 0.143-1.124 0.434-1.499 0.577-0.421 0.766 0.935 0.796 1.293 1.225 0.101-0.4 0.299-1.196 0.4-1.592-0.004 0.278-0.017 0.834-0.021 1.112 1.107-0.248 2.253-0.177 3.373-0.303-0.223 0.181-0.674 0.539-0.901 0.716 0.269 0.084 0.813 0.244 1.082 0.324-2.236-0.147-4.472-0.088-6.703-0.021 0.472-0.122 1.419-0.366 1.895-0.488-0.345-0.164-1.040-0.488-1.389-0.653zM21.861 30.842c0.253 0.248 0.253 0.248 0 0z"></path>
<path fill="#333" style="fill: var(--color2, #333)" d="M12.611 30.556c1.402-0.232 2.821-0.156 4.227-0.067-0.253 0.067-0.758 0.198-1.011 0.265-1.065 0.236-2.185 0.156-3.217-0.198z"></path>
<path fill="#333" style="fill: var(--color2, #333)" d="M29.263 30.691c1.402-0.421 2.893-0.341 4.32-0.122-1.389 0.463-2.893 0.349-4.32 0.122z"></path>
</symbol>
<symbol id="icon-logo-4" viewBox="0 0 37 32">
<title>logo-4</title>
<path fill="#fff" style="fill: var(--color1, #fff)" d="M13.945 15.716c0.203 0.213 0.203 0.213 0 0z"></path>
<path fill="#fff" style="fill: var(--color1, #fff)" d="M19.147 24.203c0.548-0.199 0.736 0.004 0.565 0.604-0.551 0.199-0.74-0.004-0.565-0.604z"></path>
<path fill="#fff" style="fill: var(--color1, #fff)" d="M6.13 25.518c-0.313-0.427-0.228-0.668 0.256-0.732 0.313 0.427 0.228 0.672-0.256 0.732z"></path>
<path fill="#fff" style="fill: var(--color1, #fff)" d="M24.256 30.364c0.213 0.206 0.213 0.206 0 0z"></path>
<path fill="#4a4a4a" style="fill: var(--color3, #4a4a4a)" d="M12.825 0.619c1.003-0.437 2.119-0.228 3.175-0.217-0.26 0.142-0.786 0.43-1.049 0.572 0.036 1.266 0.437 2.485 0.508 3.744l-0.48 0.082c-0.772-0.921-0.562-2.432-0.882-3.595-0.572 0.036-0.996-0.16-1.273-0.587z"></path>
<path fill="#4a4a4a" style="fill: var(--color3, #4a4a4a)" d="M21.39 0.356c0.864 0.092 2.197-0.363 2.542 0.757 0.334 0.704-0.37 1.22-0.715 1.739-0.018 0.807 0.665 1.998-0.452 2.329-0.178-0.946-0.249-1.931-0.715-2.795-0.409 0.747-0.178 1.966-1.052 2.368-0.356-0.348-0.21-0.85-0.153-1.276 0.181-1.042 0.377-2.080 0.544-3.122zM22.123 1.035c-0.011 0.284-0.028 0.85-0.036 1.131 0.217-0.068 0.654-0.203 0.875-0.27 0.676-0.505-0.395-1.344-0.839-0.86z"></path>
<path fill="#4a4a4a" style="fill: var(--color3, #4a4a4a)" d="M8.558 2.869c-0.036-1.284 1.913-1.945 2.556-0.754-0.078 0.206-0.238 0.619-0.316 0.828-0.213-0.213-0.644-0.636-0.857-0.846-0.181 0.203-0.54 0.615-0.722 0.818 0.978 0.484 2.674 0.345 2.93 1.689 0.231 1.604-2.784 2.098-2.699 0.288 0.679 0.103 1.746 0.786 2.002-0.274-0.86-0.789-2.645-0.345-2.894-1.749z"></path>
<path fill="#4a4a4a" style="fill: var(--color3, #4a4a4a)" d="M26.197 1.589c0.956-0.412 1.842 0.281 2.677 0.654-0.292 0.121-0.878 0.366-1.17 0.491-0.363 0.814-0.718 1.636-1.056 2.464 0.146 0.277 0.437 0.836 0.583 1.113-0.91-0.21-1.884-0.448-2.514-1.198 0.288-0.046 0.864-0.139 1.152-0.185 0.359-0.878 0.725-1.753 1.106-2.62-0.196-0.181-0.587-0.54-0.779-0.718z"></path>
<path fill="#4a4a4a" style="fill: var(--color3, #4a4a4a)" d="M5.38 3.63c0.124 0.007 0.366 0.025 0.491 0.036 0.75 0.853 1.412 1.796 1.973 2.788 0.576 1.017-0.729 2.304-1.756 1.813-0.732-0.359-1.092-1.17-1.589-1.778-0.316-0.576-1.109-1.163-0.572-1.845 1.205 0.736 1.536 2.332 2.777 3.015 0.135-0.146 0.402-0.434 0.533-0.576-0.405-1.248-1.941-2.112-1.856-3.452z"></path>
<path fill="#4a4a4a" style="fill: var(--color3, #4a4a4a)" d="M28.526 7.189c0.875-1.276 1.742-2.564 2.706-3.776 0.676 0.601 1.87 1.131 1.554 2.244-0.42 0.864-0.964 1.7-1.682 2.347-0.939 0.651-1.845-0.309-2.578-0.814zM29.536 7.196c0.252 0.050 0.754 0.149 1.003 0.199 0.715-0.807 1.998-1.902 1.067-3.008-0.772 0.875-1.429 1.838-2.069 2.809z"></path>
<path fill="#4a4a4a" style="fill: var(--color3, #4a4a4a)" d="M32.060 9.995c1.131-1.035 2.268-2.073 3.445-3.058 0.501 0.555 1.006 1.106 1.472 1.696v0.764c-0.519-0.448-1.045-0.885-1.564-1.333-0.146 0.128-0.437 0.38-0.583 0.505 0.327 0.597 0.658 1.209 0.715 1.906-0.484-0.402-0.953-0.814-1.419-1.234-0.292 0.256-0.583 0.512-0.878 0.764 0.402 0.629 0.793 1.262 1.116 1.934-0.96-0.395-1.646-1.177-2.304-1.945z"></path>
<path fill="#4a4a4a" style="fill: var(--color3, #4a4a4a)" d="M0 8.75c0.437-0.548 0.91-1.067 1.38-1.582 0.978 0.917 2.229 1.628 2.901 2.816 0.348 1.415-1.369 2.204-2.443 1.44 0.352-0.633 1.177-0.555 1.753-0.846-0.395-0.967-1.34-1.529-2.062-2.233-0.501 0.345-1.010 0.683-1.529 1.003v-0.597z"></path>
<path fill="#4a4a4a" style="fill: var(--color3, #4a4a4a)" d="M18.887 8.868c0.469-0.203 0.928-0.441 1.426-0.565 0.9 0.060 1.557 0.825 2.297 1.252-0.146-0.309-0.437-0.928-0.58-1.234 0.679-0.192 1.33-0.121 1.664 0.569 0.060 0.619 0.263 1.195 0.608 1.724 0.103-0.772 0.11-1.547 0.142-2.322 0.43 0.558 0.373 1.273 0.423 1.934-0.327 0.306-0.651 0.615-0.953 0.946-0.060-0.331-0.181-0.992-0.242-1.323-0.377 0.302-0.757 0.594-1.145 0.878-0.324 0.661-0.636 1.326-0.953 1.988-0.014 0.839-0.117 1.675-0.434 2.46-0.121 0.178-0.366 0.54-0.487 0.718-0.242-0.050-0.725-0.149-0.967-0.199 0.014 0.128 0.039 0.38 0.053 0.508-1.714 0.064-3.428 0.043-5.141-0.004-0.462 0.949-1.056 1.938-2.091 2.332-1.998 0.839-4.594-0.665-4.558-2.905-0.213-1.508 0.868-2.763 2.123-3.428-0.068 0.16-0.203 0.484-0.27 0.644-2.126 0.7-2.13 3.993-0.359 5.106 1.717 1.34 4.629 0.206 4.796-2.030-0.988 1.010-2.027 2.219-3.602 2.062-1.177-0.629-2.393-1.984-1.739-3.396 0.398-1.404 1.98-1.828 3.275-1.678l0.071-0.679c-0.38 0.064-1.141 0.192-1.522 0.256-0.224-0.135-0.441-0.27-0.658-0.412 0.779-0.032 1.557-0.011 2.332 0.068 0.238-0.348 0.476-0.693 0.715-1.042-0.846-0.128-1.948 0.274-2.553-0.537 1.714 0.050 3.424 0.164 5.127 0.352-2.016 0.103-0.21 1.863-0.050 2.798 0.455-0.928 0.939-1.863 1.063-2.901-0.612-0.043-1.223-0.096-1.831-0.171 1.6 0.092 2.731-1.035 4.018-1.771zM19.253 8.757c0.235 0.715 0.455 1.429 0.647 2.158 0.341-0.014 1.024-0.036 1.369-0.046-0.249 0.267-0.501 0.526-0.761 0.782-0.22 0.21-0.444 0.416-0.668 0.622-0.121-0.284-0.359-0.857-0.48-1.141l0.132 0.871c-0.348 0-1.045 0.007-1.394 0.011 0.832 1.145 2.233 0.27 3.339 0.167 0.132-0.249 0.395-0.747 0.526-0.996-0.299-0.156-0.59-0.316-0.885-0.476l0.676-0.199c0.971-1.664-1.397-1.959-2.5-1.753zM17.092 10.258c0.014 0.089 0.036 0.263 0.046 0.352 0.793 0.466 1.764 0.235 2.635 0.292-0.16-0.587-0.32-1.173-0.476-1.76-0.736 0.366-1.483 0.718-2.204 1.116zM13.259 12.548c0.053 0.149 0.156 0.444 0.21 0.594l-0.747-0.117c0.213 0.327 0.644 0.978 0.857 1.305 0.068-0.174 0.199-0.519 0.267-0.69 0.455 0.252 0.949 0.341 1.465 0.242-0.366-1.028-0.821-2.027-1.444-2.93-0.206 0.533-0.405 1.067-0.608 1.596zM16.636 12.932c0.612 0.039 0.999-0.907 0.811-1.419-0.562 0.018-0.914 0.921-0.811 1.419zM20.612 12.786c-0.569 1.077 1.191 0.096 0 0zM11.072 13.202c-0.658 0.107-0.356 1.152 0.256 0.942 0.644-0.132 0.377-1.152-0.256-0.942zM17.863 13.198c0.107 1.22 1.028-0.58 0 0zM15.356 14.336c0.629 0.032 1.252 0.167 1.813 0.462 0.338-0.32 0.668-0.644 0.996-0.971-0.491-0.16-0.981-0.316-1.468-0.48-0.437 0.345-0.882 0.676-1.34 0.988zM9.643 14.016c-0.22 0.565-0.028 0.764 0.569 0.597 0.213-0.569 0.025-0.768-0.569-0.597zM18.585 14.052c-0.494 0.86 1.28 1.035 1.23 0.178-0.274-0.338-0.864-0.38-1.23-0.178zM12.050 14.962c0.178 0.032 0.537 0.096 0.718 0.128-0.014 0.071-0.039 0.217-0.050 0.288-0.313 0.060-0.935 0.178-1.248 0.235 0.025-0.213 0.071-0.644 0.096-0.86-0.302 0.309-0.597 0.622-0.903 0.924 0.871 0.124 1.735 0.281 2.613 0.348 0.007-0.16 0.021-0.484 0.028-0.644 0.37-0.366 1.056 0.299 1.525 0.38 1.483 0.028 3.14 0.722 4.487-0.153-0.953-0.089-1.913-0.014-2.862-0.1-1.454-0.409-2.827-1.052-4.228-1.611-0.046 0.267-0.135 0.8-0.178 1.063zM18.35 15.115c-0.053-0.149-0.16-0.448-0.213-0.597-0.967-0.146-0.48 1.284 0.213 0.597zM8.939 15.14c0.437 0.939 0.8 2.062 1.899 2.4 0.004-0.203 0.007-0.612 0.007-0.814-0.516-0.306-1.575-0.74-0.729-1.547-0.295-0.011-0.882-0.028-1.177-0.039zM13.945 15.716c0.203 0.213 0.203 0.213 0 0zM11.552 16.789c-0.007 0.139-0.018 0.416-0.021 0.558 0.988 0.786 1.006-1.536 0.021-0.558z"></path>
<path fill="#4a4a4a" style="fill: var(--color3, #4a4a4a)" d="M10.638 10.101c1.532-0.821 3.374-0.277 4.946 0.142-1.646-0.117-3.292-0.26-4.946-0.142z"></path>
<path fill="#4a4a4a" style="fill: var(--color3, #4a4a4a)" d="M14.18 20.356c1.536-0.676 3.175-1.060 4.782-1.529-0.206 0.38-0.412 0.764-0.619 1.148 1.148-0.156 2.3-0.299 3.46-0.345-1.575 0.565-3.182 1.042-4.772 1.575 0.149-0.331 0.448-0.988 0.594-1.316-1.148 0.16-2.293 0.341-3.445 0.466z"></path>
<path fill="#4a4a4a" style="fill: var(--color3, #4a4a4a)" d="M5.504 23.211c0.501-0.004 1.003-0.004 1.504 0 0.245 1.255 0.487 2.51 0.629 3.783-0.484-0.21-0.964-0.437-1.44-0.661-0.444 0.231-0.889 0.462-1.337 0.686 0.174-1.276 0.43-2.539 0.644-3.808zM6.13 25.518c0.484-0.060 0.569-0.306 0.256-0.732-0.484 0.064-0.569 0.306-0.256 0.732z"></path>
<path fill="#4a4a4a" style="fill: var(--color3, #4a4a4a)" d="M18.254 23.186c0.754 0.089 1.664-0.181 2.283 0.37 0.391 0.597 0.046 1.255-0.11 1.863 0.121 0.508 0.238 1.017 0.359 1.529-1.010 0.153-1.269-0.665-1.497-1.44-0.039 0.459-0.085 0.914-0.132 1.372-0.228-0.018-0.686-0.053-0.914-0.068 0.007-1.209 0.004-2.418 0.011-3.627zM19.147 24.203c-0.174 0.601 0.014 0.804 0.565 0.604 0.171-0.601-0.018-0.804-0.565-0.604z"></path>
<path fill="#4a4a4a" style="fill: var(--color3, #4a4a4a)" d="M22.706 23.356c0.384-0.277 0.981-0.103 1.44-0.196 0.277 1.259 0.501 2.532 0.676 3.808-0.462-0.199-0.924-0.391-1.39-0.583-0.487 0.164-0.953 0.384-1.433 0.565 0.242-1.195 0.366-2.421 0.708-3.595z"></path>
<path fill="#4a4a4a" style="fill: var(--color3, #4a4a4a)" d="M26.322 23.868c0.331-0.821 1.28-0.672 1.991-0.7 0.014 0.231 0.046 0.686 0.060 0.917-0.292 0.039-0.878 0.117-1.17 0.156 0.071 0.476-0.164 1.070 0.153 1.476 0.267 0.164 0.793 0.491 1.056 0.654 0.046 0.85-1.191 0.498-1.675 0.356-0.811-0.683-0.743-1.945-0.416-2.859z"></path>
<path fill="#4a4a4a" style="fill: var(--color3, #4a4a4a)" d="M33.205 23.182c0.772 0.075 1.66-0.146 2.322 0.366 0.334 0.64 0.004 1.316-0.149 1.952 0.096 0.356 0.292 1.074 0.388 1.429-1.024 0.185-1.301-0.658-1.568-1.429 0.004 0.327 0.011 0.981 0.014 1.305-0.338 0.018-0.676 0.032-1.013 0.046 0-1.223-0.004-2.446 0.007-3.669zM34.112 24.188c-0.188 0.597-0.004 0.804 0.555 0.619 0.185-0.594 0-0.8-0.555-0.619z"></path>
<path fill="#4a4a4a" style="fill: var(--color3, #4a4a4a)" d="M1.739 23.723c0.348-0.693 1.212-0.587 1.849-0.491 0.025 0.245 0.075 0.732 0.1 0.974-0.284 0.004-0.86 0.014-1.145 0.018-0.007 0.516-0.014 1.035-0.018 1.554 0.644 0.103 1.209 0.327 1.305 1.060-0.69-0.078-1.696 0.302-2.105-0.484-0.416-0.796-0.402-1.838 0.014-2.631z"></path>
<path fill="#4a4a4a" style="fill: var(--color3, #4a4a4a)" d="M9.077 23.2c0.718 0.004 1.436 0.014 2.158 0.039-0.16 0.668-0.597 1.042-1.319 1.124 0.299 0.139 0.9 0.412 1.198 0.551-0.341 0.242-0.668 0.498-0.996 0.757-0.011 0.391-0.018 0.786-0.028 1.18-0.256-0.007-0.764-0.018-1.020-0.021 0.004-1.209 0-2.421 0.007-3.63z"></path>
<path fill="#4a4a4a" style="fill: var(--color3, #4a4a4a)" d="M12.405 23.193c0.754 0.014 1.508 0.039 2.258 0.096-0.142 0.686-0.821 0.832-1.323 1.131 0.416 0.199 0.8 0.444 1.156 0.732-0.427 0.217-0.85 0.434-1.273 0.654 0.324 0.078 0.971 0.231 1.294 0.309-0.036 0.181-0.11 0.548-0.149 0.732-0.654-0.007-1.308-0.011-1.963-0.014 0-1.216 0-2.428 0-3.641z"></path>
<path fill="#4a4a4a" style="fill: var(--color3, #4a4a4a)" d="M29.742 23.189c0.732 0.011 1.468 0.032 2.204 0.078-0.117 0.693-0.8 0.91-1.351 1.106 0.263 0.281 1.269 0.235 0.978 0.789-0.32 0.256-0.647 0.505-0.981 0.747 0.309 0.043 0.924 0.128 1.234 0.171-0.036 0.188-0.107 0.569-0.142 0.757-0.651 0.004-1.298 0.004-1.948 0.004 0-1.216 0-2.432 0.007-3.652z"></path>
<path fill="#4a4a4a" style="fill: var(--color3, #4a4a4a)" d="M3.765 31.022c0.199-1.134 0.853-2.279 2.148-2.265-0.057 0.256-0.178 0.764-0.238 1.017-0.149-0.174-0.448-0.526-0.594-0.7-0.331 0.569-0.647 1.141-0.932 1.732 0.672-0.192 1.298-0.512 1.863-0.924-0.032 0.281-0.089 0.846-0.117 1.127 0.142-0.281 0.43-0.843 0.572-1.12 0.299 0.395 0.604 0.789 0.914 1.177-0.092-0.338-0.281-1.017-0.373-1.355 0.206 0.206 0.612 0.622 0.818 0.832l0.48-1.020c0.21 0.537-0.064 1.070-0.164 1.596-1.461-0.064-2.919-0.064-4.377-0.096z"></path>
<path fill="#4a4a4a" style="fill: var(--color3, #4a4a4a)" d="M12.761 29.543c0.615-0.633 2.052-1.18 2.45-0.021-0.217-0.014-0.651-0.039-0.868-0.050l0.146-0.377c-0.572 0.156-1.145 0.32-1.728 0.448z"></path>
<path fill="#4a4a4a" style="fill: var(--color3, #4a4a4a)" d="M18.069 28.708c-0.16 0.587-0.487 1.756-0.647 2.343 0.32-0.491 0.96-1.472 1.28-1.963 0.135 0.42 0.274 0.839 0.416 1.259-0.235-0.018-0.7-0.053-0.935-0.071l0.704 0.69c-1.291 0.139-2.585 0.1-3.879 0.121-0.050-0.1-0.153-0.302-0.203-0.402-0.644 0.235-1.301 0.43-1.973 0.576 0.235-0.43 0.469-0.857 0.708-1.284 0.128 0.185 0.26 0.373 0.388 0.558 0.416-0.196 0.839-0.373 1.269-0.533l0.053 0.939c0.114-0.139 0.334-0.42 0.448-0.558 0.334-0.011 0.672-0.025 1.006-0.043 0.057 0.128 0.167 0.384 0.224 0.512 0.356-0.729 0.718-1.454 1.141-2.144z"></path>
<path fill="#4a4a4a" style="fill: var(--color3, #4a4a4a)" d="M19.627 31.367c0.43-0.946 0.956-1.842 1.504-2.724 0.025 0.334 0.075 1.003 0.1 1.337 0.242-0.32 0.725-0.964 0.967-1.284-0.039 0.875-0.085 1.756-0.252 2.62-0.050-0.366-0.153-1.099-0.206-1.461-0.188 0.277-0.569 0.836-0.761 1.116-0.021-0.263-0.064-0.786-0.089-1.045-0.395 0.501-0.804 0.996-1.262 1.44z"></path>
<path fill="#4a4a4a" style="fill: var(--color3, #4a4a4a)" d="M30.77 30.087c0.284-0.459 0.58-0.91 0.907-1.337-0.235 0.747-0.562 1.458-0.857 2.183 0.487-0.43 0.981-0.853 1.486-1.262-0.039 0.249-0.124 0.754-0.164 1.006l0.871 0.114c-0.071-0.281-0.213-0.843-0.284-1.127 0.316 0.434 0.612 0.882 0.903 1.333-1.138 0.092-2.276 0.060-3.413 0.025 0.068-0.16 0.206-0.48 0.274-0.64-0.192-0.139-0.572-0.416-0.764-0.555 0.26 0.064 0.782 0.196 1.042 0.26z"></path>
<path fill="#4a4a4a" style="fill: var(--color3, #4a4a4a)" d="M23.776 30.098c0.252-0.359 0.501-0.718 0.754-1.077-0.014 0.206-0.050 0.612-0.068 0.818 0.448 0.078 0.885 0.196 1.312 0.352 0.587-0.26 1.202-0.171 1.764 0.121l-0.085 0.306-0.103 0.256c-0.494 0.341-1.191 0.057-1.756 0.139-0.235-0.32-0.473-0.636-0.718-0.949 0.078 0.26 0.235 0.779 0.313 1.042-1.028-0.117-2.059-0.028-3.086-0.085 0.405-0.263 0.821-0.516 1.23-0.779l-1.063-0.21c0.505-0.050 1.010-0.028 1.508 0.068zM24.256 30.364c0.213 0.206 0.213 0.206 0 0z"></path>
<path fill="#4a4a4a" style="fill: var(--color3, #4a4a4a)" d="M14.002 29.646c0.096 0.096 0.096 0.096 0 0z"></path>
<path fill="#4a4a4a" style="fill: var(--color3, #4a4a4a)" d="M16.786 29.707c0.228 0.171 0.228 0.171 0 0z"></path>
<path fill="#4a4a4a" style="fill: var(--color3, #4a4a4a)" d="M10.012 30.962c-0.188-0.32-1.607-1.109-0.572-1.084 0.139 0.082 0.416 0.245 0.551 0.327 0.647-0.156 1.301-0.274 1.956-0.38-0.050 0.53-0.103 1.056-0.171 1.582-0.114-0.192-0.341-0.576-0.455-0.772-0.437 0.107-0.875 0.21-1.308 0.327z"></path>
<path fill="#4a4a4a" style="fill: var(--color3, #4a4a4a)" d="M27.705 29.945c0.206 0.217 0.206 0.217 0 0z"></path>
<path fill="#4a4a4a" style="fill: var(--color3, #4a4a4a)" d="M28.004 30.407c0.679-0.064 1.365-0.075 2.048-0.1l0.004 0.601c-0.693 0.167-1.234 0.619-1.746 1.092h-0.228c0.117-0.196 0.356-0.59 0.476-0.789-0.096-0.089-0.284-0.274-0.38-0.366-0.043-0.107-0.132-0.327-0.174-0.437z"></path>
<path fill="#4a4a4a" style="fill: var(--color3, #4a4a4a)" d="M8.668 30.713c0.096 0.092 0.096 0.092 0 0z"></path>
</symbol>
<symbol id="icon-logo-5" viewBox="0 0 55 32">
<title>logo-5</title>
<path fill="#fff" style="fill: var(--color1, #fff)" d="M35.32 29.61c0.505 0.73 0.795 1.565 1.085 2.39h-1.325c0.065-0.8 0.145-1.595 0.24-2.39z"></path>
<path fill="#363636" style="fill: var(--color4, #363636)" d="M9.125 0h0.645c-0.1 1.41-0.1 2.825-0.125 4.235 0.35 0.18 1.055 0.535 1.41 0.71-0.675 0.080-1.345 0.15-2.020 0.215-0.105-1.715-0.14-3.45 0.090-5.16z"></path>
<path fill="#363636" style="fill: var(--color4, #363636)" d="M11.905 0h1.865c-0.5 0.465-1 0.925-1.505 1.38 0.505 0.43 0.995 0.88 1.455 1.36-0.405 0.185-1.205 0.55-1.605 0.735 0.555 0.545 1.12 1.085 1.69 1.62-0.645 0.005-1.29 0.010-1.935 0.010-0.010-1.7-0.010-3.405 0.035-5.105z"></path>
<path fill="#363636" style="fill: var(--color4, #363636)" d="M14.845 0h1.93c-1.030 1.43-0.63 3.23-0.645 4.865-0.19 0.015-0.565 0.045-0.755 0.065-0.005-1.65 0.24-3.4-0.53-4.93z"></path>
<path fill="#363636" style="fill: var(--color4, #363636)" d="M17.81 0h1.905c-0.865 1.5-0.57 3.27-0.605 4.92-0.18 0-0.55 0-0.73 0-0.025-1.65 0.23-3.4-0.57-4.92z"></path>
<path fill="#363636" style="fill: var(--color4, #363636)" d="M20.9 0h2.015c-0.575 0.43-1.14 0.87-1.7 1.32 0.485 0.43 0.975 0.865 1.46 1.3-0.26 0.16-0.775 0.48-1.035 0.64-0.39 0.905 0.705 1.32 1.165 1.885-0.485-0.015-1.45-0.045-1.935-0.065-0.010-1.69-0.010-3.385 0.030-5.080z"></path>
<path fill="#363636" style="fill: var(--color4, #363636)" d="M27.625 0h1.475c0.28 0.485 0.805 0.915 0.785 1.52 0.125 1.055-1.13 1.315-1.765 1.87 0.035 0.38 0.11 1.14 0.145 1.52-0.215 0.010-0.645 0.025-0.86 0.030 0.030-1.65 0.085-3.295 0.22-4.94zM28.255 0.96c-0.62 0.475-0.065 1.875 0.72 1.265 0.71-0.455 0.055-1.91-0.72-1.265z"></path>
<path fill="#363636" style="fill: var(--color4, #363636)" d="M34.685 0h1.875c-0.605 0.51-1.18 1.050-1.765 1.58 0.545 0.325 1.1 0.635 1.665 0.935-0.295 0.2-0.875 0.605-1.17 0.81-0.565 0.91 0.74 1.225 1.2 1.78-0.64 0-1.28 0-1.92 0-0.115-1.7-0.17-3.415 0.115-5.105z"></path>
<path fill="#363636" style="fill: var(--color4, #363636)" d="M37.905 0h1.005c0.27 0.65 0.535 1.3 0.795 1.95-0.695-0.455-1.4-0.91-2.115-1.34 0.42 1.42 2.6 2.87 1.41 4.37-1.225 0.235-1.975-0.435-2.125-1.69 0.525 0.345 1.575 1.040 2.1 1.39-0.54-1.225-1.305-2.325-1.885-3.525 0.205-0.29 0.61-0.865 0.815-1.155z"></path>
<path fill="#363636" style="fill: var(--color4, #363636)" d="M41.375 0h0.97c0.275 0.665 0.57 1.33 0.855 1.99-0.705-0.47-1.41-0.94-2.125-1.39 0.58 1.18 1.35 2.26 1.925 3.445-0.235 0.475-0.57 0.86-1.010 1.16-1.030-0.090-1.325-1.135-1.76-1.89 0.73 0.435 1.445 0.895 2.16 1.345-0.54-1.22-1.315-2.315-1.82-3.55 0.2-0.28 0.605-0.835 0.805-1.11z"></path>
<path fill="#363636" style="fill: var(--color4, #363636)" d="M24.47 0.010c0.080 0.815 0.125 1.63 0.175 2.45 0.2-0.11 0.6-0.325 0.8-0.43-0.26-0.75 0.175-1.39 0.62-1.915-0.020 1.755 0.475 3.63-0.22 5.3-0.34-0.92-0.070-2.275-1.225-2.665-0.030 0.72-0.050 1.44-0.060 2.165l-0.715 0.055c0.105-1.655-0.425-3.5 0.625-4.96z"></path>
<path fill="#363636" style="fill: var(--color4, #363636)" d="M30.93 0.555c1.49-0.655 0.48 1.47 0.805 2.145 0.805-0.685 0.99-1.53 0.335-2.44 0.275 0.155 0.825 0.455 1.1 0.61-0.030 1.515 0.34 3.14-0.31 4.57-0.35-0.915-0.015-2.325-1.215-2.67-0.030 0.715-0.050 1.435-0.060 2.15l-0.725 0.035c0.005-1.465-0.055-2.935 0.070-4.4z"></path>
<path fill="#363636" style="fill: var(--color4, #363636)" d="M0 7.725c18.335 0.005 36.665 0 55 0v1.040c-18.335 0-36.665-0.010-55 0.005v-1.045z"></path>
<path fill="#363636" style="fill: var(--color4, #363636)" d="M8.215 11.725c1.345-0.395 3.050 0.25 3.285 1.76 0.285 1.815 0.29 3.7 0 5.515-0.335 2.27-3.995 2.545-4.775 0.465-0.48-1.775-0.355-3.665-0.21-5.48 0.040-1.010 0.65-2.050 1.7-2.26zM8.46 13.135c-0.405 2.125-0.22 4.325-0.040 6.47 0.315-0.115 0.955-0.35 1.27-0.465 0.12-1.985 0.44-4.14-0.19-6.050-0.26 0.010-0.78 0.035-1.040 0.045z"></path>
<path fill="#363636" style="fill: var(--color4, #363636)" d="M13.585 11.795c0.585 0 1.17 0 1.76 0 0.020 2.245-0.095 4.49 0.040 6.73-0.155 0.86 0.865 0.815 1.395 1.010 0.235-2.56 0.11-5.135 0.115-7.705 0.47-0.010 1.4-0.035 1.865-0.050-0.075 2.42 0.15 4.855-0.14 7.26-0.375 2.425-4.58 2.48-4.885 0.005-0.315-2.405-0.070-4.84-0.15-7.25z"></path>
<path fill="#363636" style="fill: var(--color4, #363636)" d="M37.17 11.735c1.38-0.42 3.085 0.25 3.355 1.785 0.24 1.8 0.25 3.66-0.005 5.465-0.365 2.215-3.865 2.585-4.755 0.59-0.605-1.62-0.36-3.4-0.35-5.090 0.020-1.125 0.53-2.485 1.755-2.75zM37.485 13.145c-0.48 1.73-0.245 3.565-0.22 5.335-0.085 0.74 0.525 1.095 1.2 0.95 0.66-1.185 0.3-2.625 0.395-3.92-0.025-0.95 0.19-3-1.375-2.365z"></path>
<path fill="#363636" style="fill: var(--color4, #363636)" d="M42.6 13.55c0.28-2.165 3.58-2.61 4.645-0.84 0.395 0.745 0.395 1.615 0.545 2.425-0.44 0.005-1.325 0.010-1.77 0.010 0.070-0.945-0.38-2.96-1.62-1.715-0.245 1.88-0.245 3.815-0.005 5.695 1.24 1.045 1.635-0.695 1.67-1.64-0.305-0.045-0.915-0.135-1.22-0.185l0.035-1.165c0.95-0.010 1.895-0.015 2.845-0.020-0.005 1.555 0 3.115-0.010 4.67-0.39-0.085-1.175-0.26-1.565-0.345-1.13 0.565-2.785 0.605-3.315-0.795-0.675-1.935-0.505-4.095-0.235-6.095z"></path>
<path fill="#363636" style="fill: var(--color4, #363636)" d="M51.21 11.78c1.265-0.455 3.405 0.065 3.265 1.74-0.025 2.095 0.17 4.225-0.135 6.305-1.030 1.595-3.98 1.345-4.53-0.555-0.33-1.745-0.21-3.55-0.13-5.315 0.025-0.945 0.605-1.875 1.53-2.175zM51.535 13.5c-0.195 1.91-0.31 3.9 0.11 5.785 0.255 0.055 0.76 0.175 1.010 0.23 0.7-2.185 0.46-4.565 0-6.775-0.28 0.19-0.84 0.57-1.12 0.76z"></path>
<path fill="#363636" style="fill: var(--color4, #363636)" d="M0.455 11.675c0.305 0.055 0.92 0.17 1.225 0.23 0.485 1.19 0.595 2.495 0.85 3.745 0.38-1.265 0.695-2.545 0.97-3.835 0.425-0.005 1.285-0.020 1.715-0.025-0.855 2.9-2.025 5.805-1.785 8.89-0.425 0.005-1.275 0.010-1.7 0.015 0.47-3.13-1.28-5.94-1.275-9.020z"></path>
<path fill="#363636" style="fill: var(--color4, #363636)" d="M20.78 11.76c1.49-0.030 2.98 0.1 4.395 0.6 0.635 1.485 0.525 3.125-0.715 4.255 0.42 1.365 0.86 2.725 1.32 4.075-0.47 0-1.42-0.005-1.895-0.010-0.32-1.47-0.62-2.955-1.2-4.345-0.115 1.445-0.1 2.895-0.085 4.345-0.455 0.005-1.365 0.010-1.82 0.015 0.010-2.98 0.010-5.955 0-8.935zM22.6 13.065c0 0.885 0.010 1.765 0.035 2.645 1.21-0.27 1.15-1.405 1.15-2.405-0.295-0.060-0.885-0.18-1.185-0.24z"></path>
<path fill="#363636" style="fill: var(--color4, #363636)" d="M30.35 11.795c0.465 0 1.4 0.005 1.87 0.005-0.015 2.54 0 5.080-0.020 7.62 0.54-0.025 1.085-0.050 1.63-0.080 0.050 0.455 0.095 0.905 0.135 1.36-1.205-0.010-2.41-0.015-3.615-0.015 0.010-2.965 0.010-5.925 0-8.89z"></path>
<path fill="#363636" style="fill: var(--color4, #363636)" d="M0 23.3c18.335 0.005 36.665 0.005 55 0v1.065c-18.335 0-36.665-0.015-55 0.005v-1.070z"></path>
<path fill="#363636" style="fill: var(--color4, #363636)" d="M9.405 27.125c0.825 0.22 2.23-0.030 2.395 1.115 0.37 1.205-0.9 1.715-1.73 2.17 0.020 0.4 0.050 1.195 0.070 1.59h-0.86c0.155-1.62 0.13-3.25 0.125-4.875zM10.19 28c-0.655 0.465-0.065 1.875 0.72 1.28 0.69-0.455 0.060-1.885-0.72-1.28z"></path>
<path fill="#363636" style="fill: var(--color4, #363636)" d="M13.39 27.34c1.21-0.605 1.645 0.92 2.015 1.74-0.73-0.475-1.45-0.96-2.195-1.415 0.57 1.21 1.32 2.32 2.1 3.4-0.19 0.235-0.565 0.7-0.755 0.935h-1.5c-0.17-0.515-0.335-1.025-0.505-1.54 0.71 0.405 1.43 0.8 2.155 1.185-0.34-1.325-3-3.040-1.315-4.305z"></path>
<path fill="#363636" style="fill: var(--color4, #363636)" d="M16.335 27.105c0.69 0.155 1.46 0.13 2.065 0.535 0.615 1.365 0.28 2.95-0.030 4.36h-2.155c0.12-1.63 0.095-3.265 0.12-4.895zM16.98 27.735c-0.030 1.36 0.020 2.715 0.16 4.065 1.35-0.765 1.5-3.635-0.16-4.065z"></path>
<path fill="#363636" style="fill: var(--color4, #363636)" d="M27.385 27.87c0.34-0.915 1.835-0.83 2.090 0.105 0.365 1.315 0.14 2.72-0.175 4.025h-1.96c-0.060-1.37-0.36-2.8 0.045-4.13zM27.97 28.22c0.005 1.11-0.705 3.15 0.895 3.37 0.050-1.245 0.050-2.49 0.015-3.735-0.23 0.090-0.685 0.275-0.91 0.365z"></path>
<path fill="#363636" style="fill: var(--color4, #363636)" d="M31.75 27.26c1.23-0.365 1.42 1.125 1.665 1.97-0.535-0.515-1.080-1.010-1.64-1.495-0.205 1.245-0.235 2.52-0.13 3.775 0.685-0.32 1.33-0.715 1.995-1.065-0.295 0.525-0.605 1.040-0.92 1.555h-1.755c0.18-1.51-0.835-3.805 0.785-4.74z"></path>
<path fill="#363636" style="fill: var(--color4, #363636)" d="M34.39 32c-0.015-1.765 0.015-3.54 0.35-5.28 0.265 1 0.47 2.015 0.755 3.010 0.445-0.995 0.79-2.025 1.21-3.030 0.035 1.765-0.010 3.535 0.11 5.3h-0.41c-0.29-0.825-0.58-1.66-1.085-2.39-0.095 0.795-0.175 1.59-0.24 2.39h-0.69z"></path>
<path fill="#363636" style="fill: var(--color4, #363636)" d="M38.25 32c-0.19-1.79-0.335-3.645 0.245-5.385 0.36 1.755 0.29 3.55 0.485 5.32 1.285-1.43 0.575-3.485 1.030-5.2 0.585 1.695 0.505 3.525 0.19 5.265h-1.95z"></path>
<path fill="#363636" style="fill: var(--color4, #363636)" d="M41.775 27.075c0.785 0.225 1.86 0.090 2.295 0.945 0.485 1.715-2.080 2.17-1.85 3.98h-0.495c0.015-1.64 0.010-3.285 0.050-4.925zM42.5 28.015c-0.615 0.515 0.060 1.875 0.81 1.245 0.655-0.495-0.080-1.875-0.81-1.245z"></path>
<path fill="#363636" style="fill: var(--color4, #363636)" d="M22.19 27.65c0.925-0.56 2.145-0.28 3.18-0.5 0.8 1.495 0.56 3.225 0.595 4.85h-0.62c-0.095-1.555-0.085-3.125-0.335-4.67-0.975 1.375-0.72 3.090-0.745 4.67h-0.645c-0.005-1.325-0.005-2.65-0.020-3.97-0.25 0.010-0.755 0.025-1.005 0.035 0 1.31 0.005 2.625 0.010 3.935h-0.84c0.195-1.44-0.090-2.97 0.425-4.35z"></path>
</symbol>
<symbol id="icon-logo-2" viewBox="0 0 32 32">
<title>logo-2</title>
<path fill="#fff" style="fill: var(--color1, #fff)" d="M10.125 14.269c0.131 0 0.397 0 0.528 0 0.016 1.094 0.013 2.186 0.006 3.28-0.134 0-0.41 0-0.547 0-0.010-1.091-0.010-2.186 0.013-3.28z"></path>
<path fill="#353535" style="fill: var(--color5, #353535)" d="M11.574 2.246c1.325-0.627 2.557-1.594 4.077-1.67 1.267-0.125 2.499 0.33 3.565 0.979 1.683 1.008 3.542 1.651 5.427 2.17 1.171 0.301 2.182 1.053 2.912 2.003 0.893 1.139 1.040 2.627 1.539 3.942 0.499 1.51 1.373 2.858 1.984 4.32 0.131-0.173 0.262-0.346 0.394-0.518 0.134 0.125 0.397 0.371 0.528 0.496v0.95l-0.189 0.083c-0.531 0.288-0.192 1.098-0.285 1.594-0.022 1.232-0.8 2.246-1.341 3.299-0.806 1.456-1.312 3.050-1.766 4.643-0.509 1.898-2.131 3.414-4.042 3.846-2.035 0.525-3.978 1.347-5.782 2.426-1.808 1.046-4.109 0.755-5.802-0.387-1.686-1.011-3.562-1.626-5.443-2.154-1.878-0.528-3.331-2.17-3.77-4.054-0.496-1.904-1.248-3.734-2.272-5.418-1.059-1.664-1.050-3.914 0.006-5.578 1.078-1.757 1.821-3.686 2.349-5.674 0.477-1.786 1.917-3.29 3.699-3.792 1.43-0.419 2.877-0.829 4.211-1.507zM15.251 1.277c-1.277 0.176-2.278 1.050-3.421 1.562-1.226 0.589-2.502 1.062-3.824 1.382-1.869 0.362-3.456 1.917-3.811 3.789-0.477 2-1.354 3.878-2.4 5.635-0.845 1.424-0.858 3.299-0.010 4.723 1.046 1.757 1.93 3.632 2.403 5.629 0.202 1.011 0.73 1.939 1.504 2.621 1.331 1.334 3.363 1.242 4.973 2.054 1.83 0.598 3.312 2.17 5.328 2.147 1.946 0.083 3.398-1.386 5.13-2.013 1.366-0.688 2.922-0.851 4.304-1.482 1.242-0.646 2.173-1.856 2.461-3.229 0.464-1.923 1.254-3.76 2.275-5.453 1.030-1.555 1.014-3.715-0.006-5.27-0.845-1.389-1.52-2.88-1.994-4.435-0.31-2.096-1.638-4.186-3.827-4.65-2.035-0.48-3.981-1.306-5.776-2.378-0.982-0.589-2.173-0.851-3.309-0.634zM31.334 14.122c0.042 0.109 0.125 0.33 0.166 0.438l0.243-0.157-0.022-0.333-0.253-0.141-0.134 0.192z"></path>
<path fill="#353535" style="fill: var(--color5, #353535)" d="M9.293 8.694c0.006-0.717 0.787-0.723 1.296-0.912 0.122 0.211 0.365 0.637 0.486 0.851-0.339-0.294-0.704-0.381-1.094-0.266-0.198 0.746 0.912 0.89 1.082 1.533-0.109 0.275-0.227 0.544-0.362 0.81-0.403 0.010-0.803 0.022-1.203 0.035-0.096-0.221-0.288-0.659-0.384-0.88 0.451 0.39 0.973 0.678 1.587 0.678-0.227-0.8-1.107-1.114-1.408-1.85z"></path>
<path fill="#353535" style="fill: var(--color5, #353535)" d="M11.229 7.962c0.371-0.026 0.742-0.054 1.114-0.080-0.141 0.957-0.147 1.926-0.019 2.883-0.176-0.006-0.522-0.013-0.694-0.016 0.058-0.851 0.067-1.702 0.064-2.554-0.115-0.058-0.349-0.176-0.464-0.234z"></path>
<path fill="#353535" style="fill: var(--color5, #353535)" d="M12.838 7.962c0.371-0.026 0.739-0.054 1.107-0.080-0.109 0.938-0.118 1.888-0.026 2.829 0.426-0.246 0.845-0.502 1.258-0.765-0.090 0.195-0.266 0.582-0.355 0.778-0.531 0.006-1.062 0.016-1.59 0.026 0.070-0.842 0.080-1.69 0.077-2.534-0.115-0.064-0.352-0.189-0.47-0.253z"></path>
<path fill="#353535" style="fill: var(--color5, #353535)" d="M15.043 7.92c0.189-0.006 0.566-0.016 0.755-0.019 0.144 0.774 0.394 1.526 0.848 2.176 0.144-0.714 0.24-1.434 0.288-2.16 1.014 0.032 2.029 0.006 3.043-0.003 0.022 0.256 0.045 0.509 0.070 0.765-0.352-0.246-0.707-0.48-1.069-0.707-0.013 0.262-0.045 0.79-0.061 1.053 0.406 0.125 0.835 0.192 1.203 0.41-0.31 0-0.931 0.003-1.242 0.003 0.032 0.298 0.099 0.896 0.131 1.194 0.502-0.192 0.986-0.429 1.446-0.701-0.294 1.2-1.603 0.688-2.486 0.797 0.112-0.096 0.336-0.288 0.448-0.384-0.010-0.762-0.022-1.523-0.054-2.285-0.208-0.003-0.627-0.006-0.835-0.006l-0.032 0.467-0.272-0.074c-0.17 0.867-0.518 1.686-0.896 2.48-0.416-1.008-0.803-2.029-1.286-3.005z"></path>
<path fill="#353535" style="fill: var(--color5, #353535)" d="M20.672 7.923c0.445-0.013 0.89-0.029 1.334-0.051 0.282 0.307 0.557 0.621 0.822 0.941-0.16 0.166-0.483 0.502-0.643 0.669 0.317 0.48 0.627 0.963 0.902 1.466-0.832-0.304-1.283-1.082-1.683-1.821 0.080 0.704-0.035 1.366-0.346 1.987-0.218-1.053-0.099-2.147-0.387-3.19zM21.517 9.136c0.65 0.464 0.906-0.886 0.227-0.95-0.422 0.208-0.499 0.525-0.227 0.95z"></path>
<path fill="#353535" style="fill: var(--color5, #353535)" d="M6.314 9.603c0.022-0.55 0.97-0.566 0.97 0.003-0.006 0.566-0.96 0.554-0.97-0.003z"></path>
<path fill="#353535" style="fill: var(--color5, #353535)" d="M24.749 9.325c0.346-0.48 1.094 0.134 0.701 0.57-0.349 0.477-1.094-0.131-0.701-0.57z"></path>
<path fill="#353535" style="fill: var(--color5, #353535)" d="M5.293 13.517c0.435 0 0.874-0.003 1.309-0.003-0.010 0.57-0.019 1.136-0.032 1.706l0.544 0.003c-0.038-0.56-0.077-1.12-0.122-1.68 0.317-0.013 0.95-0.035 1.267-0.045 0 1.638-0.010 3.28 0.010 4.918-0.301 0-0.902-0.006-1.206-0.010 0.013-0.666 0.019-1.331 0.029-1.994-0.128-0.016-0.381-0.045-0.509-0.058 0.003 0.685 0.010 1.373 0.016 2.058-0.435 0-0.87-0.003-1.306-0.003 0.016-1.632 0.016-3.261 0-4.893z"></path>
<path fill="#353535" style="fill: var(--color5, #353535)" d="M9.174 13.658c0.774-0.23 1.667-0.506 2.346 0.112 0.547 1.078 0.416 2.368 0.301 3.536-0.019 1.494-2.518 1.642-2.87 0.269-0.154-1.302-0.166-2.653 0.224-3.917zM10.125 14.269c-0.022 1.094-0.022 2.189-0.013 3.28 0.138 0 0.413 0 0.547 0 0.006-1.094 0.010-2.186-0.006-3.28-0.131 0-0.397 0-0.528 0z"></path>
<path fill="#353535" style="fill: var(--color5, #353535)" d="M12.083 13.549c1.014-0.045 2.035-0.038 3.053-0.029-0.003 0.323-0.006 0.643-0.010 0.963-0.214 0.006-0.64 0.019-0.854 0.026 0.006 1.302 0.003 2.605 0.016 3.904-0.426 0.003-0.854 0.003-1.28 0.003 0.006-1.264 0-2.528 0.019-3.792-0.656-0.022-0.864-0.509-0.944-1.075z"></path>
<path fill="#353535" style="fill: var(--color5, #353535)" d="M16.723 13.501c0.726 0.013 1.459-0.016 2.179 0.090-0.013 0.23-0.042 0.688-0.054 0.918-0.208-0.006-0.624-0.019-0.829-0.026-0.016 0.17-0.042 0.502-0.054 0.669 0.797 0.218 0.97 1.213 0.026 1.382 0.010 0.627 0.019 1.251 0.026 1.878-0.435 0-0.867 0-1.299 0 0.022-1.638 0.016-3.277 0.006-4.912z"></path>
<path fill="#353535" style="fill: var(--color5, #353535)" d="M19.347 14.422c0.214-1.405 2.522-1.414 2.851-0.074 0.118 1.13 0.035 2.266 0.042 3.398-0.637 0.915-2.294 1.117-2.829 0.006-0.227-1.088-0.166-2.23-0.064-3.331zM20.445 14.33c-0.010 1.053-0.006 2.109-0.010 3.162 0.144 0.019 0.429 0.061 0.573 0.080 0.006-1.12 0.010-2.237-0.013-3.357-0.138 0.029-0.413 0.086-0.55 0.115z"></path>
<path fill="#353535" style="fill: var(--color5, #353535)" d="M22.851 13.51c0.435 0 0.87 0 1.306 0-0.016 1.635-0.016 3.27-0.003 4.902-0.435 0.003-0.867 0.003-1.302 0.003 0.013-1.635 0.013-3.27 0-4.906z"></path>
<path fill="#353535" style="fill: var(--color5, #353535)" d="M24.784 13.517c0.435 0 0.874 0 1.309 0-0.016 1.29-0.016 2.576-0.013 3.862 0.192 0.006 0.573 0.022 0.765 0.029-0.010 0.336-0.016 0.672-0.026 1.008-0.678 0-1.357-0.003-2.035-0.003 0.013-1.632 0.016-3.264 0-4.896z"></path>
<path fill="#353535" style="fill: var(--color5, #353535)" d="M10.992 20.662c1.872-0.31 3.782-0.090 5.67-0.15 1.418 0.032 2.854-0.122 4.256 0.15-3.306 0.077-6.621 0.070-9.926 0z"></path>
<path fill="#353535" style="fill: var(--color5, #353535)" d="M7.77 24.096c-0.010-0.714 0.266-1.526 1.136-1.242-0.547 0.474-0.592 1.216-0.768 1.869l0.531 0.074c0.237-0.813 0.707-1.482 1.661-1.21l-0.33 0.48c0.179-0.022 0.541-0.067 0.723-0.093 0.374-0.269 0.813-0.397 1.258-0.493 0.003 0.262 0.010 0.784 0.013 1.046 0.202-0.275 0.608-0.819 0.813-1.091 0.314 0.179 0.637 0.349 0.918 0.582 0.051 0.464-0.31 0.816-0.499 1.2-0.394-0.179-0.781-0.368-1.171-0.554-0.211 0.509-0.435 1.018-0.717 1.494-0.198-0.17-0.595-0.506-0.794-0.675 0.272-0.013 0.816-0.035 1.088-0.048-0.506-0.24-0.986-0.534-1.405-0.909l-0.237 0.445c-0.88 0.186-1.789 0.035-2.678 0.074 0.15-0.317 0.301-0.634 0.458-0.95zM9.379 24.048c-0.192 0.547-0.038 0.746 0.464 0.589 0.182-0.55 0.029-0.746-0.464-0.589zM11.309 23.99c-0.416 0.218-0.435 0.448-0.048 0.691 0.419-0.221 0.435-0.451 0.048-0.691zM12.934 24.058c-0.413 0.234-0.413 0.458 0 0.675 0.41-0.237 0.41-0.461 0-0.675z"></path>
<path fill="#353535" style="fill: var(--color5, #353535)" d="M15.312 22.861c0.112-0.029 0.33-0.090 0.442-0.118 0.029 0.352 0.093 1.056 0.122 1.408 0.301-0.547 0.595-1.104 0.973-1.606-0.006 0.822-0.086 1.651 0.010 2.474 0.099-0.269 0.298-0.806 0.394-1.075 0.23-0.163 0.458-0.323 0.688-0.483 0.25 0.227 0.502 0.458 0.749 0.691 0.266-0.208 0.531-0.413 0.797-0.618 0.106 0.029 0.323 0.086 0.432 0.115 0.067 0.106 0.202 0.32 0.272 0.429-0.291 0.032-0.867 0.096-1.155 0.128 0.243 0.237 0.726 0.714 0.966 0.95-0.89-0.474-1.824-0.378-2.739-0.077-0.237-0.019-0.71-0.054-0.944-0.074-0.058-0.259-0.166-0.778-0.221-1.037-0.074 0.269-0.218 0.806-0.291 1.075-0.090-0.259-0.272-0.781-0.362-1.040-0.093 0.234-0.278 0.704-0.371 0.938l-0.47 0.371c0.307-0.797 0.57-1.61 0.71-2.451zM17.834 24.742c0.467-0.262 0.48-0.531 0.035-0.816-0.47 0.266-0.483 0.538-0.035 0.816z"></path>
<path fill="#353535" style="fill: var(--color5, #353535)" d="M20.47 22.864c0.128-0.019 0.384-0.058 0.515-0.077-0.032 0.198-0.096 0.595-0.128 0.797 0.493 0.138 0.995 0.234 1.507 0.237-0.006 0.394 0 0.787 0.022 1.181 0.23-0.544 0.464-1.085 0.701-1.626 0.042 0.397 0.128 1.194 0.17 1.59 0.173-0.445 0.317-0.902 0.464-1.357 0.272-0.006 0.819-0.022 1.091-0.029 0.493 1.2-0.858 1.638-1.45 2.438 0.029-0.234 0.086-0.704 0.115-0.941-0.736-0.154-1.792 0.333-2.301-0.33 0.134-0.070 0.41-0.211 0.544-0.282-0.314-0.17-0.621-0.352-0.922-0.547 0.032 0.272 0.096 0.822 0.131 1.094l-0.429-0.262-0.317 0.406-0.195-0.349c0.362-0.589 0.422-1.277 0.48-1.946zM24.195 24.752c0.461-0.269 0.474-0.544 0.032-0.826-0.464 0.272-0.477 0.547-0.032 0.826z"></path>
</symbol>
<symbol id="icon-logo-1" viewBox="0 0 46 32">
<title>logo-1</title>
<path fill="#fff" style="fill: var(--color1, #fff)" d="M34.651 5.145c0.112 0.112 0.112 0.112 0 0z"></path>
<path fill="#fff" style="fill: var(--color1, #fff)" d="M12.546 29.943c0.278 0.229 0.278 0.229 0 0z"></path>
<path fill="#fff" style="fill: var(--color1, #fff)" d="M29.822 31.356c0.474-0.183 0.765 0.033 0.873 0.644h-0.711c-0.042-0.162-0.125-0.482-0.162-0.644z"></path>
<path fill="#343434" style="fill: var(--color6, #343434)" d="M15.111 0h0.578c0.49 0.918 0.465 1.916 0.212 2.901 0.644 0.611 0.956 1.442 1.209 2.273 0.287-0.823 0.561-1.654 0.823-2.494 0.137 0.15 0.416 0.445 0.557 0.59 0.278-0.175 0.835-0.528 1.114-0.707-0.008 0.432-0.021 1.288-0.029 1.721 0.461-0.519 0.86-1.11 1.413-1.538 0.781-0.345 1.567 0.245 2.302 0.461 0.17-0.145 0.515-0.436 0.686-0.582-0.071-0.287-0.212-0.864-0.278-1.155 0.499-0.050 1.002-0.054 1.504-0.067-0.229 0.245-0.682 0.731-0.91 0.977-0.195 0.968-0.378 1.937-0.54 2.913 0.79-0.948 1.496-1.978 2.498-2.722 0.582-1.006 1.047-2.909 2.577-2.377 0.22 1.986-1.5 3.408-1.858 5.265 0.869-0.677 1.484-1.629 2.365-2.286 0.478-0.058 0.869 0.283 1.259 0.499-0.075 0.806-0.873 1.135-1.434 1.55 0.029 0.22 0.091 0.661 0.121 0.881-1.995-0.544-4.064-0.532-6.109-0.586-0.158-0.761-0.208-1.542-0.316-2.311-0.511 0.744-0.499 2.361-1.654 2.431-0.923-0.374-1.721-0.997-2.552-1.534-0.112 0.598-0.224 1.201-0.341 1.799-0.341-0.179-0.677-0.362-1.014-0.549-1.126 0.636-2.39 1.035-3.69 1.072-0.208-0.249-0.632-0.744-0.839-0.989-0.075 0.524-0.154 1.043-0.233 1.567-0.374-0.291-0.752-0.578-1.13-0.869-0.008-0.839 0.033-1.683 0.087-2.523 0.445 1.268 1.571 1.912 2.818 2.178-0.046-1.962-0.378-4.069 0.806-5.793zM14.944 2.361c0.64 0.233 0.981-1.259 0.366-1.413-0.482 0.224-0.648 0.977-0.366 1.413zM27.071 3.483c0.611-0.852 1.068-1.824 1.176-2.88-0.781 0.765-1.047 1.833-1.176 2.88zM20.8 5.137c1.184-0.154 1.085-1.376 0.852-2.236-0.698 0.561-0.839 1.392-0.852 2.236zM25.197 5.257c1.047-0.258 1.168-1.189 1.147-2.095-0.594 0.565-0.997 1.284-1.147 2.095zM15.086 3.99c0.008 0.619-0.075 1.272 0.204 1.854 0.777-0.349 0.785-1.164 0.885-1.887-0.27 0.008-0.815 0.025-1.089 0.033zM29.141 3.948c-0.229 0.594-0.046 0.769 0.549 0.536 0.233-0.594 0.050-0.773-0.549-0.536z"></path>
<path fill="#343434" style="fill: var(--color6, #343434)" d="M5.502 4.592c0.806-1.704 3.129-2.73 4.696-1.38-0.208 0.316-0.42 0.628-0.628 0.943-0.407-1.617-2.922-0.806-3.017 0.611 0.827 0.087 1.654 0.158 2.477 0.253-0.578 0.761-1.637 1.076-2.020 1.978 0.224 1.401 1.783 0.528 2.423-0.058 1.051-0.578 0.748-1.837 0.91-2.818 1.114 0.374 0.777 1.916 1.018 2.838-1.579 0.145-2.664 1.845-4.33 1.492-1.243-0.544-0.997-1.991-0.104-2.751-0.486-0.353-0.96-0.727-1.425-1.11z"></path>
<path fill="#343434" style="fill: var(--color6, #343434)" d="M29.282 5.993c1.13-0.603 1.837-1.625 2.398-2.735 0.050 0.253 0.15 0.752 0.199 1.006 0.416-0.191 0.835-0.378 1.255-0.561-0.112 0.615-0.229 1.226-0.341 1.837 0.748-0.362 1.38-1.334 2.298-1.118 0.32 0.283 0.619 0.582 0.898 0.902-0.698 0.474-1.421 0.91-2.144 1.342 0.353-0.021 1.051-0.066 1.405-0.091 0.636-0.707 1.425-1.222 2.365-1.413 0.607-0.931 1.388-1.729 2.402-2.215 0.249 0.432 0.856 0.856 0.465 1.392-0.69 1.326-1.978 2.19-2.884 3.35 0.428 0.054 1.292 0.17 1.721 0.229-0.495 0.258-0.997 0.507-1.504 0.744-0.212-0.191-0.64-0.573-0.856-0.769-1.401-0.316-3.121-0.32-4.023-1.621-0.337-0.407-0.669-0.823-0.985-1.247-0.291 0.453-0.598 0.902-0.914 1.342-0.586-0.108-1.172-0.229-1.754-0.374zM38.138 6.201c0.839-0.69 1.563-1.542 1.87-2.602-0.885 0.652-1.479 1.588-1.87 2.602zM34.651 5.145c0.112 0.112 0.112 0.112 0 0zM35.994 7.518c0.989-0.125 1.317-0.952 1.475-1.812-0.702 0.416-1.297 0.985-1.475 1.812z"></path>
<path fill="#343434" style="fill: var(--color6, #343434)" d="M12.999 3.94l0.349 0.050c0.291 0.524 0.158 0.815-0.399 0.869 0.012-0.229 0.037-0.69 0.050-0.918z"></path>
<path fill="#343434" style="fill: var(--color6, #343434)" d="M16.69 9.243c0.831-0.607 1.878-0.432 2.843-0.445 2.78 0.029 5.561 0.008 8.341-0.004 0.586-0.079 1.118 0.158 1.612 0.445-4.26 0.104-8.532-0.021-12.796 0.004z"></path>
<path fill="#343434" style="fill: var(--color6, #343434)" d="M18.406 9.442c2.585 0.017 5.17-0.042 7.755 0.017 0.748-0.025 1.463 0.216 2.119 0.553-3.308 0.224-6.633-0.062-9.941 0.162 0.017-0.183 0.050-0.549 0.067-0.731z"></path>
<path fill="#343434" style="fill: var(--color6, #343434)" d="M14.77 12.812c1.787-0.079 3.836-0.503 5.328 0.761 2.863 2.244 1.953 7.435-1.417 8.702-1.442 0.727-3.038 0.145-4.542 0.029-0.931 0.004-1.7-0.607-2.252-1.305-2.099-2.726-0.623-7.53 2.884-8.187zM16.403 13.947c-2.223 0.798-2.39 3.62-1.812 5.561 0.328 1.226 1.646 1.92 2.83 1.953 1.184-0.378 2.402-1.405 2.286-2.764-0.037-1.322 0.303-2.926-0.785-3.936-0.661-0.565-1.629-1.164-2.518-0.815z"></path>
<path fill="#343434" style="fill: var(--color6, #343434)" d="M38.89 12.825c1.708-0.050 3.636-0.54 5.166 0.486 0.823 0.578 1.712 1.405 1.642 2.506-0.104 1.754 0.511 3.89-0.968 5.236-1.762 2.003-4.779 1.808-7.094 1.093-3.828-1.891-2.797-8.37 1.255-9.322zM40.337 14.167c-1.858 0.827-1.787 3.217-1.542 4.912 0.116 1.056 1.014 1.708 1.841 2.236 1.031-0.328 2.506-0.083 3.038-1.259 0.827-1.625 0.744-3.782-0.357-5.261-0.765-0.719-2.007-1.355-2.98-0.628z"></path>
<path fill="#343434" style="fill: var(--color6, #343434)" d="M0 12.995c0.353 0.029 1.064 0.091 1.421 0.121-0.129 0.582-0.927 0.935-1.421 0.561v-0.682z"></path>
<path fill="#343434" style="fill: var(--color6, #343434)" d="M1.255 12.829c1.6 0.233 4.185-0.943 4.983 0.993-0.362 0.042-1.085 0.129-1.446 0.17-0.054 2.252-0.091 4.509-0.025 6.762-0.075 0.91 1.11 0.482 1.629 0.611 0.441-0.831 0.457-1.837 1.006-2.614 0.212 0.158 0.64 0.47 0.856 0.623 0.241-0.154 0.727-0.461 0.972-0.615 0.79 1.13 0.328 2.543 0.096 3.773-2.564-0.154-5.22 0.349-7.722-0.266 0.037-0.145 0.108-0.436 0.145-0.582 0.253-0.121 0.761-0.37 1.014-0.49 0.017-2.348 0.104-4.696-0.062-7.036-0.561-0.349-1.060-0.79-1.446-1.33z"></path>
<path fill="#343434" style="fill: var(--color6, #343434)" d="M25.085 13.839c0.927-0.997 2.361-0.815 3.582-1.060 1.33-0.166 2.909-0.278 3.973 0.702 0.582 0.482 0.686 1.351 0.308 1.991-0.486 0.224-0.989 0.403-1.513 0.532-0.054-0.482-0.108-0.964-0.162-1.446-0.208-0.154-0.628-0.465-0.835-0.619-1.355-0.021-2.992 0.312-3.466 1.783-0.449 1.554-0.482 3.524 0.682 4.788 0.993 0.96 2.481 0.752 3.74 0.756-0.004-0.74-0.025-1.479-0.042-2.219-0.553-0.183-1.101-0.366-1.654-0.549-0.050-0.162-0.15-0.495-0.199-0.657 0.029 0.536 0.062 1.072 0.104 1.608-0.237-0.528-1.633-1.164-1.126-1.7 1.908-0.158 3.836-0.096 5.748-0.021-0.278 0.515-0.607 1.006-0.964 1.471-0.154 0.856 0.191 2.028-0.744 2.531-1.804 1.33-4.197 0.918-6.259 0.632-3.582-1.035-3.815-6.363-1.172-8.524z"></path>
<path fill="#343434" style="fill: var(--color6, #343434)" d="M1.392 13.569c0.266 0.175 0.79 0.519 1.051 0.69 0.403 2.252 0.1 4.571 0.158 6.849-0.287 0.008-0.86 0.017-1.147 0.025 0.021-2.523 0.091-5.045-0.062-7.564z"></path>
<path fill="#343434" style="fill: var(--color6, #343434)" d="M17.542 14.624c0.806-0.586 1.459 0.532 1.795 1.135 0.229 1.351 0.328 2.809-0.104 4.123-0.436 0.461-0.981 1.409-1.691 0.823 0.191-0.823 0.977-1.471 0.873-2.402 0.258-1.334-0.403-2.531-0.873-3.678z"></path>
<path fill="#343434" style="fill: var(--color6, #343434)" d="M30.126 15.53c-0.287-0.495-0.224-0.898 0.187-1.205 0.611-0.025 0.989 0.831 0.623 1.297-0.204-0.025-0.607-0.066-0.81-0.091z"></path>
<path fill="#343434" style="fill: var(--color6, #343434)" d="M42.057 14.624c0.831-0.482 1.326 0.594 1.621 1.197 0.644 1.928 0.457 4.97-2.086 5.282 1.243-1.691 1.617-4.118 0.47-5.951 0-0.133-0.004-0.395-0.004-0.528z"></path>
<path fill="#343434" style="fill: var(--color6, #343434)" d="M30.109 21.024c-0.125-0.794-0.187-1.6-0.299-2.394 1.363 0.187 1.442 1.342 1.525 2.423-0.308-0.004-0.918-0.021-1.226-0.029z"></path>
<path fill="#343434" style="fill: var(--color6, #343434)" d="M0 21.232c0.303 0.108 0.91 0.324 1.214 0.432 0.108 0.266 0.328 0.79 0.436 1.056-0.561-0.17-1.11-0.37-1.65-0.59v-0.898z"></path>
<path fill="#343434" style="fill: var(--color6, #343434)" d="M17.883 25.288c3.429-0.1 6.87-0.108 10.302 0.017-1.305 0.952-3.005 0.465-4.501 0.598-1.928-0.133-4.035 0.366-5.802-0.615z"></path>
<path fill="#343434" style="fill: var(--color6, #343434)" d="M16.686 26.086c2.186-0.22 4.376 0.062 6.562-0.004 2.082 0.058 4.164-0.187 6.242-0.008-0.848 0.615-1.912 0.428-2.888 0.449-2.772-0.025-5.544 0-8.312 0-0.582 0.067-1.11-0.17-1.604-0.436z"></path>
<path fill="#343434" style="fill: var(--color6, #343434)" d="M11.674 30.109c-0.017-1.126 1.247-0.694 1.982-0.765-0.179 0.258-0.528 0.777-0.707 1.035 0.199 0.22 0.598 0.661 0.794 0.881-0.224 0.183-0.677 0.553-0.902 0.74h-1.147c0-0.262-0.004-0.79-0.004-1.056 0.436 0.287 0.877 0.565 1.322 0.848-0.449-0.561-0.935-1.089-1.338-1.683zM12.546 29.943c0.278 0.229 0.278 0.229 0 0z"></path>
<path fill="#343434" style="fill: var(--color6, #343434)" d="M14.354 29.132c0.827 0.208 2.045 0.012 2.406 1.010 0.308 0.756-0.362 1.355-0.815 1.858h-1.583c0.058-0.956 0.042-1.912-0.008-2.868zM15.127 31.755c0.445-0.362 1.213-0.619 0.985-1.346-0.216-0.245-0.652-0.731-0.869-0.972-0.083 0.769-0.116 1.546-0.116 2.319z"></path>
<path fill="#343434" style="fill: var(--color6, #343434)" d="M19.399 29.186c0.187 0.046 0.561 0.133 0.748 0.175 0.121 0.278 0.357 0.831 0.478 1.11 0.37-0.519 0.744-1.039 1.122-1.55 0.166 1.031 0.303 2.065 0.561 3.079h-1.068c0.125-0.482 0.249-0.96 0.378-1.442-0.32 0.278-0.64 0.544-0.972 0.802-0.266-0.195-0.802-0.582-1.068-0.773 0.166 0.353 0.499 1.060 0.669 1.413h-1.23c0.229-0.923 0.32-1.87 0.382-2.814z"></path>
<path fill="#343434" style="fill: var(--color6, #343434)" d="M23.131 29.777c0.536-0.756 1.829-0.702 2.203 0.187 0.519 0.711-0.278 1.484-0.677 2.036h-1.392c-0.158-0.719-0.619-1.529-0.133-2.223zM23.651 29.86c-0.241 0.628-0.187 1.895 0.785 1.583 0.644-0.64 0.349-2.14-0.785-1.583z"></path>
<path fill="#343434" style="fill: var(--color6, #343434)" d="M26.809 29.373c0.761-0.478 1.326 0.345 1.808 0.806-0.661-0.108-1.322-0.229-1.982-0.353 0.062 0.349 0.187 1.047 0.249 1.396 0.395 0.067 1.193 0.204 1.588 0.274-0.204 0.125-0.611 0.378-0.815 0.503h-1.147c-0.461-0.827-0.744-2.103 0.299-2.627z"></path>
<path fill="#343434" style="fill: var(--color6, #343434)" d="M30.259 29.315c0.81-0.050 1.617-0.1 2.427-0.145-0.012 0.727-0.033 1.455 0.012 2.182 1.434 0.411 0.731-1.317 0.831-2.136 0.233 0.029 0.706 0.079 0.943 0.108-0.204 0.898-0.395 1.804-0.702 2.676h-1.421c-0.308-0.682-0.008-1.791-0.765-2.161-0.337 0.096-1.006 0.291-1.342 0.387 0.436 0.594 0.864 1.193 1.322 1.775h-0.869c-0.108-0.611-0.399-0.827-0.873-0.644 0.037 0.162 0.121 0.482 0.162 0.644h-1.064c0.141-0.923 0.125-1.862 0.1-2.793 0.204 0.029 0.615 0.083 0.819 0.112 0.017 0.324 0.050 0.977 0.067 1.301 0.087-0.324 0.266-0.977 0.353-1.305z"></path>
<path fill="#343434" style="fill: var(--color6, #343434)" d="M8.997 29.099c0.761 0.208 1.671 0.191 2.228 0.839-0.195 0.773-0.931 1.168-1.479 1.662 0.195 0.1 0.582 0.299 0.773 0.399h-1.484c0.008-0.968-0.004-1.932-0.037-2.901zM9.745 29.856c-0.224 0.686 0 0.923 0.665 0.706 0.224-0.677 0.004-0.914-0.665-0.706z"></path>
<path fill="#343434" style="fill: var(--color6, #343434)" d="M35.158 29.095c0.64 0.116 1.272 0.262 1.903 0.428 0.632 1.039-0.719 1.529-1.255 2.19 0.229 0.071 0.686 0.216 0.914 0.287h-1.534c0.012-0.968 0.004-1.937-0.029-2.905zM35.861 29.843c-0.224 0.682-0.004 0.918 0.669 0.702 0.22-0.677 0-0.91-0.669-0.702z"></path>
</symbol>
<symbol id="icon-MeStore" viewBox="0 0 184 32">
<title>MeStore</title>
<path d="M0.848 1.568c2.672 0 5.344 0.048 8.016 0.16 3.008 5.104 6.128 10.16 9.264 15.2 3.040-5.104 6.080-10.224 9.12-15.328 2.656 0 5.296 0 7.952 0 0 9.6 0 19.2 0 28.8-2.912 0-5.824 0-8.736 0-0.016-4.384 0-8.768-0.048-13.152-2.112 3.456-4.176 6.96-6.288 10.416-1.088-0.016-3.248-0.032-4.336-0.048-2.080-3.28-4.112-6.592-6.192-9.872 0 4.224 0 8.432 0 12.656-2.912 0-5.824 0-8.752 0 0-9.616 0.016-19.216 0-28.832z"></path>
<path d="M70.304 2.976c6.048-3.648 13.424-2.016 19.744-0.048-0.944 2.352-1.872 4.704-2.8 7.072-4.352-1.408-8.944-2.064-13.344-0.464 4.608 2.624 10.128 3.104 14.592 5.92 4.416 3.536 2.992 11.072-1.792 13.568-6.512 3.936-14.368 1.792-21.12-0.288 0.944-2.464 1.888-4.944 2.816-7.408 4.496 1.744 9.28 2.576 14.096 2.112-3.312-5.232-11.040-3.312-14.832-7.968-3.184-3.84-1.536-10.080 2.64-12.496z"></path>
<path d="M95.232 2.768c3.056 0 6.128 0 9.184 0.016 0 2.112 0 4.24 0 6.368 1.2 0 3.6 0.032 4.8 0.048 0 2.256 0.016 4.512 0.016 6.768-1.216 0.016-3.632 0.064-4.848 0.096 0 2.464 0.064 4.944 0.176 7.408 1.024 0 3.040 0.016 4.048 0.016 0.72 2.256 1.44 4.512 2.16 6.784-4.288 0.304-9.376 1.504-12.944-1.712-3.248-2.88-2.304-7.632-2.8-11.488-3.36-1.296-2.976-4.816-3.328-7.76 0.896-0.064 2.704-0.192 3.616-0.256-0.032-2.096-0.064-4.192-0.080-6.288z"></path>
<path d="M150.064 8.72c2.080-0.656 4.16-1.28 6.24-1.888 0.032 2.56 0.064 5.12 0.096 7.68-2.064 0.928-4.848 0.896-6.288 2.832-1.040 4.256-0.48 8.704-0.608 13.056-3.040 0-6.096 0-9.136 0 0.016-7.728-0.016-15.472 0.032-23.2 3.232 0.4 6.464 0.88 9.664 1.52z"></path>
<path d="M38.768 21.856c-2.784-9.536 8.368-17.552 17.008-13.904 6 1.44 7.776 7.824 8.288 13.2-5.712 0.064-11.44-0.032-17.136 0.448 3.104 2.528 6.848 2.48 10.48 1.232 1.616 1.584 3.232 3.184 4.848 4.784-7.44 5.168-20.816 4.224-23.488-5.76zM46.704 16.592c3.024 0.144 6.080 0.16 9.12 0.048-0.976-0.768-2.912-2.288-3.872-3.056-2.208-0.256-3.584 1.984-5.248 3.008z"></path>
<path d="M118.896 8.24c8.176-3.648 19.808 2.128 18.656 11.904-1.008 11.888-19.28 14.32-24.8 4.528-3.648-5.856-0.464-14.4 6.144-16.432zM122.256 15.216c-3.424 2.496-1.168 9.92 3.536 8.24 4.848-2.272 1.392-12.144-3.536-8.24z"></path>
<path d="M157.744 20.912c-2-10.176 10.704-17.136 19.008-12.16 4.992 1.984 5.744 7.808 6.576 12.416-5.76 0.032-11.536-0.032-17.296 0.496 3.216 2.32 6.96 2.464 10.624 1.248 1.584 1.568 3.152 3.152 4.704 4.736-7.664 5.408-21.664 3.856-23.616-6.736zM165.664 16.48c3.152 0.192 6.336 0.24 9.504 0.16-1.408-1.056-2.768-2.208-4.288-3.088-2.048 0.192-3.52 1.936-5.216 2.928z"></path>
</symbol>
<symbol id="icon-star" viewBox="0 0 26 28">
<title>star</title>
<path d="M26 10.109c0 0.281-0.203 0.547-0.406 0.75l-5.672 5.531 1.344 7.812c0.016 0.109 0.016 0.203 0.016 0.313 0 0.406-0.187 0.781-0.641 0.781-0.219 0-0.438-0.078-0.625-0.187l-7.016-3.687-7.016 3.687c-0.203 0.109-0.406 0.187-0.625 0.187-0.453 0-0.656-0.375-0.656-0.781 0-0.109 0.016-0.203 0.031-0.313l1.344-7.812-5.688-5.531c-0.187-0.203-0.391-0.469-0.391-0.75 0-0.469 0.484-0.656 0.875-0.719l7.844-1.141 3.516-7.109c0.141-0.297 0.406-0.641 0.766-0.641s0.625 0.344 0.766 0.641l3.516 7.109 7.844 1.141c0.375 0.063 0.875 0.25 0.875 0.719z"></path>
</symbol>
<symbol id="icon-star-o" viewBox="0 0 26 28">
<title>star-o</title>
<path d="M17.766 15.687l4.781-4.641-6.594-0.969-2.953-5.969-2.953 5.969-6.594 0.969 4.781 4.641-1.141 6.578 5.906-3.109 5.891 3.109zM26 10.109c0 0.281-0.203 0.547-0.406 0.75l-5.672 5.531 1.344 7.812c0.016 0.109 0.016 0.203 0.016 0.313 0 0.422-0.187 0.781-0.641 0.781-0.219 0-0.438-0.078-0.625-0.187l-7.016-3.687-7.016 3.687c-0.203 0.109-0.406 0.187-0.625 0.187-0.453 0-0.656-0.375-0.656-0.781 0-0.109 0.016-0.203 0.031-0.313l1.344-7.812-5.688-5.531c-0.187-0.203-0.391-0.469-0.391-0.75 0-0.469 0.484-0.656 0.875-0.719l7.844-1.141 3.516-7.109c0.141-0.297 0.406-0.641 0.766-0.641s0.625 0.344 0.766 0.641l3.516 7.109 7.844 1.141c0.375 0.063 0.875 0.25 0.875 0.719z"></path>
</symbol>
<symbol id="icon-plane" viewBox="0 0 22 28">
<title>plane</title>
<path d="M21.5 2.5c1 1 0 3.5-1.5 5l-2.516 2.516 2.5 10.875c0.047 0.187-0.031 0.391-0.187 0.516l-2 1.5c-0.078 0.063-0.187 0.094-0.297 0.094-0.031 0-0.063 0-0.109-0.016-0.141-0.031-0.266-0.109-0.328-0.25l-4.359-7.938-4.047 4.047 0.828 3.031c0.047 0.172 0 0.344-0.125 0.484l-1.5 1.5c-0.094 0.094-0.234 0.141-0.359 0.141h-0.031c-0.156-0.016-0.281-0.078-0.375-0.203l-2.953-3.938-3.938-2.953c-0.125-0.078-0.187-0.219-0.203-0.359s0.047-0.281 0.141-0.391l1.5-1.516c0.094-0.094 0.234-0.141 0.359-0.141 0.047 0 0.094 0 0.125 0.016l3.031 0.828 4.047-4.047-7.938-4.359c-0.141-0.078-0.234-0.219-0.266-0.375-0.016-0.141 0.031-0.313 0.141-0.422l2-2c0.125-0.109 0.313-0.172 0.469-0.125l10.391 2.484 2.5-2.5c1.5-1.5 4-2.5 5-1.5z"></path>
</symbol>
<symbol id="icon-shopping-cart" viewBox="0 0 26 28">
<title>shopping-cart</title>
<path d="M10 24c0 1.094-0.906 2-2 2s-2-0.906-2-2 0.906-2 2-2 2 0.906 2 2zM24 24c0 1.094-0.906 2-2 2s-2-0.906-2-2 0.906-2 2-2 2 0.906 2 2zM26 7v8c0 0.5-0.391 0.938-0.891 1l-16.312 1.906c0.078 0.359 0.203 0.719 0.203 1.094 0 0.359-0.219 0.688-0.375 1h14.375c0.547 0 1 0.453 1 1s-0.453 1-1 1h-16c-0.547 0-1-0.453-1-1 0-0.484 0.703-1.656 0.953-2.141l-2.766-12.859h-3.187c-0.547 0-1-0.453-1-1s0.453-1 1-1h4c1.047 0 1.078 1.25 1.234 2h18.766c0.547 0 1 0.453 1 1z"></path>
</symbol>
<symbol id="icon-arrow-circle-left" viewBox="0 0 24 28">
<title>arrow-circle-left</title>
<path d="M20 15v-2c0-0.547-0.453-1-1-1h-7.844l2.953-2.953c0.187-0.187 0.297-0.438 0.297-0.703s-0.109-0.516-0.297-0.703l-1.422-1.422c-0.187-0.187-0.438-0.281-0.703-0.281s-0.516 0.094-0.703 0.281l-7.078 7.078c-0.187 0.187-0.281 0.438-0.281 0.703s0.094 0.516 0.281 0.703l7.078 7.078c0.187 0.187 0.438 0.281 0.703 0.281s0.516-0.094 0.703-0.281l1.422-1.422c0.187-0.187 0.281-0.438 0.281-0.703s-0.094-0.516-0.281-0.703l-2.953-2.953h7.844c0.547 0 1-0.453 1-1zM24 14c0 6.625-5.375 12-12 12s-12-5.375-12-12 5.375-12 12-12 12 5.375 12 12z"></path>
</symbol>
<symbol id="icon-arrow-circle-right" viewBox="0 0 24 28">
<title>arrow-circle-right</title>
<path d="M20.078 14c0-0.266-0.094-0.516-0.281-0.703l-7.078-7.078c-0.187-0.187-0.438-0.281-0.703-0.281s-0.516 0.094-0.703 0.281l-1.422 1.422c-0.187 0.187-0.281 0.438-0.281 0.703s0.094 0.516 0.281 0.703l2.953 2.953h-7.844c-0.547 0-1 0.453-1 1v2c0 0.547 0.453 1 1 1h7.844l-2.953 2.953c-0.187 0.187-0.297 0.438-0.297 0.703s0.109 0.516 0.297 0.703l1.422 1.422c0.187 0.187 0.438 0.281 0.703 0.281s0.516-0.094 0.703-0.281l7.078-7.078c0.187-0.187 0.281-0.438 0.281-0.703zM24 14c0 6.625-5.375 12-12 12s-12-5.375-12-12 5.375-12 12-12 12 5.375 12 12z"></path>
</symbol>
<symbol id="icon-life-bouy" viewBox="0 0 28 28">
<title>life-bouy</title>
<path d="M14 0c7.734 0 14 6.266 14 14s-6.266 14-14 14-14-6.266-14-14 6.266-14 14-14zM14 2c-2.031 0-3.953 0.516-5.641 1.406l3.031 3.031c0.828-0.281 1.703-0.438 2.609-0.438 0.922 0 1.781 0.156 2.609 0.438l3.031-3.031c-1.687-0.891-3.609-1.406-5.641-1.406zM3.406 19.641l3.031-3.031c-0.281-0.828-0.438-1.703-0.438-2.609 0-0.922 0.156-1.781 0.438-2.609l-3.031-3.031c-0.891 1.687-1.406 3.609-1.406 5.641s0.516 3.953 1.406 5.641zM14 26c2.031 0 3.953-0.516 5.641-1.406l-3.031-3.031c-0.828 0.281-1.687 0.438-2.609 0.438-0.906 0-1.781-0.156-2.609-0.438l-3.031 3.031c1.687 0.891 3.609 1.406 5.641 1.406zM14 20c3.313 0 6-2.688 6-6s-2.688-6-6-6-6 2.688-6 6 2.688 6 6 6zM21.562 16.609l3.031 3.031c0.891-1.687 1.406-3.609 1.406-5.641s-0.516-3.953-1.406-5.641l-3.031 3.031c0.281 0.828 0.438 1.703 0.438 2.609s-0.156 1.781-0.438 2.609z"></path>
</symbol>
<symbol id="icon-search1" viewBox="0 0 32 32">
<title>search1</title>
<path d="M19.427 20.427c-1.39 0.99-3.090 1.573-4.927 1.573-4.694 0-8.5-3.806-8.5-8.5s3.806-8.5 8.5-8.5c4.694 0 8.5 3.806 8.5 8.5 0 1.837-0.583 3.537-1.573 4.927l5.585 5.585c0.55 0.55 0.546 1.431-0 1.976l-0.023 0.023c-0.544 0.544-1.431 0.546-1.976 0l-5.585-5.585zM14.5 20c3.59 0 6.5-2.91 6.5-6.5s-2.91-6.5-6.5-6.5c-3.59 0-6.5 2.91-6.5 6.5s2.91 6.5 6.5 6.5v0z"></path>
</symbol>
<symbol id="icon-clock" viewBox="0 0 16 16">
<title>clock</title>
<path d="M9 7v-3h-2v5h4v-2zM8 0c-4.418 0-8 3.582-8 8s3.582 8 8 8 8-3.582 8-8-3.582-8-8-8zM8 14c-3.313 0-6-2.687-6-6s2.687-6 6-6 6 2.687 6 6-2.687 6-6 6z"></path>
</symbol>
</defs>
</svg>
